<svg width="48" height="48" viewBox="0 0 48 48" fill="none" xmlns="http://www.w3.org/2000/svg">
<path d="M1.02434 23.7913C1.01948 27.8209 2.08184 31.7806 4.10431 35.2711L0.831024 47.1694L13.0622 43.9768C16.4453 45.8096 20.2354 46.7703 24.0871 46.7712H24.0973C36.8123 46.7712 47.1632 36.4704 47.1685 23.8096C47.171 17.6743 44.7731 11.9056 40.4169 7.56513C36.0614 3.22507 30.2686 0.833821 24.0964 0.83139C11.3794 0.83139 1.02963 11.1309 1.02434 23.7913Z" fill="url(#paint0_linear_39_62)"/>
<path d="M0.200638 23.784C0.19566 27.958 1.29605 32.0595 3.3909 35.6751L0 48L12.6695 44.6927C16.1738 46.5923 20.1002 47.5878 24.0903 47.5884H24.1005C37.2718 47.5884 47.9939 36.9169 48 23.8031C48.002 17.4474 45.5179 11.4713 41.0062 6.97522C36.4937 2.47998 30.4937 0.00243095 24.1005 0C10.9268 0 0.205928 10.6695 0.200638 23.784ZM7.74591 35.054L7.2726 34.3064C5.2832 31.155 4.23035 27.5074 4.23577 23.7853C4.23984 12.8853 13.1509 4.01756 24.1083 4.01756C29.414 4.01958 34.4006 6.0786 38.1517 9.81498C41.9023 13.5518 43.9661 18.5186 43.9645 23.8015C43.9596 34.7019 35.0489 43.5712 24.1001 43.5712H24.0928C20.5353 43.5714 17.0432 42.6196 13.982 40.8153L13.2563 40.3867L5.73832 42.3492L7.74591 35.054Z" fill="url(#paint1_linear_39_62)"/>
<path d="M18.127 13.8407C17.6793 12.8508 17.2088 12.831 16.7836 12.8136C16.4352 12.7986 16.0368 12.7998 15.6391 12.7998C15.2403 12.7998 14.5936 12.9489 14.0467 13.5437C13.4993 14.1384 11.9565 15.5764 11.9565 18.5016C11.9565 21.4268 14.0963 24.2528 14.3946 24.6499C14.6933 25.0461 18.5258 31.2406 24.5954 33.6234C29.6402 35.6038 30.6666 35.21 31.7614 35.1107C32.8561 35.0118 35.2947 33.6732 35.792 32.2847C36.2898 30.8966 36.2898 29.7067 36.1404 29.4583C35.9915 29.2108 35.593 29.0617 34.996 28.7647C34.3986 28.4673 31.4627 27.029 30.9157 26.8305C30.3679 26.6323 29.9699 26.5335 29.5715 27.1287C29.1734 27.723 28.0298 29.0617 27.6815 29.4583C27.3331 29.855 26.9843 29.9052 26.3873 29.6082C25.7899 29.3096 23.8665 28.6824 21.585 26.6575C19.8098 25.0814 18.6113 23.1358 18.2629 22.5406C17.9145 21.9455 18.2259 21.6242 18.525 21.3276C18.7936 21.0614 19.1224 20.6335 19.4211 20.2863C19.7191 19.9391 19.8188 19.6916 20.0178 19.2949C20.2172 18.8978 20.1171 18.551 19.9681 18.2536C19.8188 17.9563 18.6581 15.0164 18.127 13.8407Z" fill="white"/>
<defs>
<linearGradient id="paint0_linear_39_62" x1="2317.71" y1="4634.64" x2="2317.71" y2="0.83139" gradientUnits="userSpaceOnUse">
<stop stop-color="#1FAF38"/>
<stop offset="1" stop-color="#60D669"/>
</linearGradient>
<linearGradient id="paint1_linear_39_62" x1="2400" y1="4800" x2="2400" y2="0" gradientUnits="userSpaceOnUse">
<stop stop-color="#F9F9F9"/>
<stop offset="1" stop-color="white"/>
</linearGradient>
</defs>
</svg>
