<svg width="48" height="48" viewBox="0 0 48 48" fill="none" xmlns="http://www.w3.org/2000/svg">
<path d="M36.75 0H11.25C5.0368 0 0 5.0368 0 11.25V36.75C0 42.9632 5.0368 48 11.25 48H36.75C42.9632 48 48 42.9632 48 36.75V11.25C48 5.0368 42.9632 0 36.75 0Z" fill="#F4F2ED"/>
<path d="M7.80675 38.0698H13.7726V23.5811L5.25 17.1893V35.5131C5.25 36.9278 6.39638 38.0698 7.80675 38.0698Z" fill="#4285F4"/>
<path d="M34.2272 38.0698H40.1932C41.6079 38.0698 42.75 36.9234 42.75 35.5131V17.1891L34.2272 23.5811" fill="#34A853"/>
<path d="M34.2272 12.5016V23.5811L42.75 17.1892V13.7797C42.75 10.6179 39.1406 8.8153 36.6137 10.7117" fill="#FBBC04"/>
<path d="M13.7728 23.5811V12.5017L24 20.1718L34.2272 12.5014V23.5809L24 31.2516" fill="#EA4335"/>
<path d="M5.25 13.78V17.1891L13.7726 23.5811V12.5018L11.3863 10.7119C8.85506 8.81552 5.25 10.6181 5.25 13.78Z" fill="#C5221F"/>
</svg>
