<svg xmlns="http://www.w3.org/2000/svg" width="44" height="40" viewBox="0 0 44 40" fill="none">
  <path d="M8 38H36M21.124 2.53185C21.2103 2.37506 21.3371 2.24432 21.4912 2.15326C21.6453 2.0622 21.821 2.01416 22 2.01416C22.179 2.01416 22.3547 2.0622 22.5088 2.15326C22.6628 2.24432 22.7897 2.37506 22.876 2.53185L28.78 13.7398C28.9208 13.9994 29.1173 14.2245 29.3554 14.3991C29.5935 14.5737 29.8673 14.6934 30.1572 14.7496C30.447 14.8058 30.7458 14.7971 31.0319 14.7242C31.318 14.6513 31.5844 14.5159 31.812 14.3278L40.366 6.9998C40.5302 6.8663 40.7325 6.7883 40.9439 6.7771C41.1553 6.7658 41.3648 6.8219 41.5422 6.9373C41.7196 7.0527 41.8559 7.2215 41.9313 7.4192C42.0067 7.617 42.0175 7.8336 41.962 8.0378L36.294 28.5298C36.1783 28.9492 35.929 29.3194 35.584 29.5843C35.239 29.8492 34.817 29.9944 34.382 29.9979H9.62C9.1847 29.9948 8.7622 29.8498 8.4168 29.5849C8.0713 29.3199 7.82178 28.9495 7.70599 28.5298L2.03999 8.0398C1.98449 7.8356 1.99524 7.619 2.07068 7.4212C2.14611 7.2235 2.28236 7.0547 2.4598 6.9393C2.63723 6.8239 2.84671 6.7678 3.05807 6.7791C3.26944 6.7903 3.47179 6.8683 3.63599 7.0018L12.188 14.3298C12.4156 14.5179 12.682 14.6533 12.9681 14.7262C13.2542 14.7991 13.5529 14.8078 13.8428 14.7516C14.1326 14.6954 14.4065 14.5757 14.6446 14.4011C14.8827 14.2265 15.0792 14.0014 15.22 13.7418L21.124 2.53185Z" stroke="#FDE047" stroke-width="4" stroke-linecap="round" stroke-linejoin="round"/>
</svg>