<svg width="48" height="34" viewBox="0 0 48 34" fill="none" xmlns="http://www.w3.org/2000/svg">
<path d="M46.9407 5.3242C46.6654 4.29512 46.1283 3.35694 45.383 2.60308C44.6377 1.84922 43.7101 1.30599 42.6926 1.02748C38.9677 0 23.9761 0 23.9761 0C23.9761 0 8.98369 0.0311012 5.25875 1.05858C4.24126 1.33711 3.31367 1.88037 2.56835 2.63426C1.82302 3.38816 1.28597 4.32638 1.01068 5.3555C-0.116028 12.0495 -0.553098 22.2496 1.04162 28.6758C1.31694 29.7049 1.854 30.6431 2.59933 31.3969C3.34465 32.1508 4.27222 32.694 5.28969 32.9725C9.01463 34 24.0066 34 24.0066 34C24.0066 34 38.9984 34 42.7232 32.9725C43.7407 32.694 44.6683 32.1508 45.4137 31.397C46.159 30.6431 46.6961 29.7049 46.9715 28.6758C48.1598 21.9723 48.526 11.7785 46.9407 5.3242Z" fill="#FF0000"/>
<path d="M19.2043 24.2856L31.641 16.9999L19.2043 9.71423V24.2856Z" fill="white"/>
</svg>
